<?xml version="1.0" encoding="UTF-8"?>
<svg xmlns="http://www.w3.org/2000/svg" xmlns:xlink="http://www.w3.org/1999/xlink" viewBox="0 0 30 30" width="30px" height="30px">
<g id="surface68055298">
<path style="fill-rule:nonzero;fill:rgb(0%,0%,0%);fill-opacity:1;stroke-width:20;stroke-linecap:butt;stroke-linejoin:round;stroke:rgb(0%,0%,0%);stroke-opacity:1;stroke-miterlimit:10;" d="M 85.999997 81.050918 L 145.438937 21.611978 L 150.388016 26.561057 L 90.949076 85.999997 L 150.388016 145.438937 L 145.438937 150.388016 L 85.999997 90.949076 L 26.561057 150.388016 L 21.611978 145.438937 L 81.050918 85.999997 L 21.611978 26.561057 L 26.561057 21.611978 Z M 85.999997 81.050918 " transform="matrix(0.156279,0,0,0.156279,1.56,1.56)"/>
<path style=" stroke:none;fill-rule:nonzero;fill:rgb(0%,0%,0%);fill-opacity:1;" d="M 5.710938 4.9375 L 4.9375 5.710938 L 14.226562 15 L 4.9375 24.289062 L 5.710938 25.0625 L 15 15.773438 L 24.289062 25.0625 L 25.0625 24.289062 L 15.773438 15 L 25.0625 5.710938 L 24.289062 4.9375 L 15 14.226562 Z M 5.710938 4.9375 "/>
</g>
</svg>
